<!-- Home -->
<svg viewBox="0 0 24 24" preserveAspectRatio="xMidYMid meet" focusable="false" class="style-scope yt-icon"
	style="pointer-events: none; display: block; width: 100%; height: 100%;">
	<g class="style-scope yt-icon">
		<path d="M11,7l6,3.5L11,14V7L11,7z M18,20H4V6H3v15h15V20z M21,18H6V3h15V18z M7,17h13V4H7V17z"
			class="style-scope yt-icon"></path>
	</g>
</svg>
<!-- Explore -->
<svg viewBox="0 0 24 24" preserveAspectRatio="xMidYMid meet" focusable="false" class="style-scope yt-icon"
	style="pointer-events: none; display: block; width: 100%; height: 100%;">
	<g class="style-scope yt-icon">
		<path
			d="M9.8,9.8l-3.83,8.23l8.23-3.83l3.83-8.23L9.8,9.8z M13.08,12.77c-0.21,0.29-0.51,0.48-0.86,0.54 c-0.07,0.01-0.15,0.02-0.22,0.02c-0.28,0-0.54-0.08-0.77-0.25c-0.29-0.21-0.48-0.51-0.54-0.86c-0.06-0.35,0.02-0.71,0.23-0.99 c0.21-0.29,0.51-0.48,0.86-0.54c0.35-0.06,0.7,0.02,0.99,0.23c0.29,0.21,0.48,0.51,0.54,0.86C13.37,12.13,13.29,12.48,13.08,12.77z M12,3c4.96,0,9,4.04,9,9s-4.04,9-9,9s-9-4.04-9-9S7.04,3,12,3 M12,2C6.48,2,2,6.48,2,12s4.48,10,10,10s10-4.48,10-10S17.52,2,12,2 L12,2z"
			class="style-scope yt-icon"></path>
	</g>
</svg>
<!-- Shorts -->
<svg viewBox="0 0 24 24" preserveAspectRatio="xMidYMid meet" focusable="false" class="style-scope yt-icon"
	style="pointer-events: none; display: block; width: 100%; height: 100%;">
	<g height="24" viewBox="0 0 24 24" width="24" class="style-scope yt-icon">
		<path
			d="M10 14.65v-5.3L15 12l-5 2.65zm7.77-4.33c-.77-.32-1.2-.5-1.2-.5L18 9.06c1.84-.96 2.53-3.23 1.56-5.06s-3.24-2.53-5.07-1.56L6 6.94c-1.29.68-2.07 2.04-2 3.49.07 1.42.93 2.67 2.22 3.25.03.01 1.2.5 1.2.5L6 14.93c-1.83.97-2.53 3.24-1.56 5.07.97 1.83 3.24 2.53 5.07 1.56l8.5-4.5c1.29-.68 2.06-2.04 1.99-3.49-.07-1.42-.94-2.68-2.23-3.25zm-.23 5.86l-8.5 4.5c-1.34.71-3.01.2-3.72-1.14-.71-1.34-.2-3.01 1.14-3.72l2.04-1.08v-1.21l-.69-.28-1.11-.46c-.99-.41-1.65-1.35-1.7-2.41-.05-1.06.52-2.06 1.46-2.56l8.5-4.5c1.34-.71 3.01-.2 3.72 1.14.71 1.34.2 3.01-1.14 3.72L15.5 9.26v1.21l1.8.74c.99.41 1.65 1.35 1.7 2.41.05 1.06-.52 2.06-1.46 2.56z"
			class="style-scope yt-icon"></path>
	</g>
</svg>
<!-- Subscriptions -->
<svg viewBox="0 0 24 24" preserveAspectRatio="xMidYMid meet" focusable="false" class="style-scope yt-icon"
	style="pointer-events: none; display: block; width: 100%; height: 100%;">
	<g class="style-scope yt-icon">
		<path d="M10,18v-6l5,3L10,18z M17,3H7v1h10V3z M20,6H4v1h16V6z M22,9H2v12h20V9z M3,10h18v10H3V10z"
			class="style-scope yt-icon"></path>
	</g>
</svg>
<!-- YouTube Music -->
<svg viewBox="0 0 24 24" preserveAspectRatio="xMidYMid meet" focusable="false" class="style-scope yt-icon"
	style="pointer-events: none; display: block; width: 100%; height: 100%;">
	<g class="style-scope yt-icon">
		<path
			d="M10 9.35L15 12l-5 2.65zM12 7a5 5 0 105 5 5 5 0 00-5-5m0-1a6 6 0 11-6 6 6 6 0 016-6zm0-3a9 9 0 109 9 9 9 0 00-9-9m0-1A10 10 0 112 12 10 10 0 0112 2z"
			class="style-scope yt-icon"></path>
	</g>
</svg>
<!-- Library -->
<svg viewBox="0 0 24 24" preserveAspectRatio="xMidYMid meet" focusable="false" class="style-scope yt-icon"
	style="pointer-events: none; display: block; width: 100%; height: 100%;">
	<g class="style-scope yt-icon">
		<path d="M11,7l6,3.5L11,14V7L11,7z M18,20H4V6H3v15h15V20z M21,18H6V3h15V18z M7,17h13V4H7V17z"
			class="style-scope yt-icon"></path>
	</g>
</svg>
<!-- History -->
<svg viewBox="0 0 24 24" preserveAspectRatio="xMidYMid meet" focusable="false" class="style-scope yt-icon"
	style="pointer-events: none; display: block; width: 100%; height: 100%;">
	<g class="style-scope yt-icon">
		<path
			d="M14.97,16.95L10,13.87V7h2v5.76l4.03,2.49L14.97,16.95z M22,12c0,5.51-4.49,10-10,10S2,17.51,2,12h1c0,4.96,4.04,9,9,9 s9-4.04,9-9s-4.04-9-9-9C8.81,3,5.92,4.64,4.28,7.38C4.17,7.56,4.06,7.75,3.97,7.94C3.96,7.96,3.95,7.98,3.94,8H8v1H1.96V3h1v4.74 C3,7.65,3.03,7.57,3.07,7.49C3.18,7.27,3.3,7.07,3.42,6.86C5.22,3.86,8.51,2,12,2C17.51,2,22,6.49,22,12z"
			class="style-scope yt-icon"></path>
	</g>
</svg>
<!-- Your videos -->
<svg viewBox="0 0 24 24" preserveAspectRatio="xMidYMid meet" focusable="false" class="style-scope yt-icon"
	style="pointer-events: none; display: block; width: 100%; height: 100%;">
	<g class="style-scope yt-icon">
		<path
			d="M14.97,16.95L10,13.87V7h2v5.76l4.03,2.49L14.97,16.95z M22,12c0,5.51-4.49,10-10,10S2,17.51,2,12h1c0,4.96,4.04,9,9,9 s9-4.04,9-9s-4.04-9-9-9C8.81,3,5.92,4.64,4.28,7.38C4.17,7.56,4.06,7.75,3.97,7.94C3.96,7.96,3.95,7.98,3.94,8H8v1H1.96V3h1v4.74 C3,7.65,3.03,7.57,3.07,7.49C3.18,7.27,3.3,7.07,3.42,6.86C5.22,3.86,8.51,2,12,2C17.51,2,22,6.49,22,12z"
			class="style-scope yt-icon"></path>
	</g>
</svg>
<!-- Your Movies -->
<svg viewBox="0 0 24 24" preserveAspectRatio="xMidYMid meet" focusable="false" class="style-scope yt-icon"
	style="pointer-events: none; display: block; width: 100%; height: 100%;">
	<g class="style-scope yt-icon">
		<path
			d="M4,21H3V3h1V21z M8,15H6v2h2V15z M8,11H6v2h2V11z M8,7H6v2h2V7z M18,15h-2v2h2V15z M8,19H6v2h2V19z M18,19h-2v2h2V19z M18,11h-2v2h2V11z M18,7h-2v2h2V7z M8,3H6v2h2V3z M18,3h-2v2h2V3z M21,3h-1v18h1V3z"
			class="style-scope yt-icon"></path>
	</g>
</svg>
<!-- Watch later -->
<svg viewBox="0 0 24 24" preserveAspectRatio="xMidYMid meet" focusable="false" class="style-scope yt-icon"
	style="pointer-events: none; display: block; width: 100%; height: 100%;">
	<g class="style-scope yt-icon">
		<path
			d="M14.97,16.95L10,13.87V7h2v5.76l4.03,2.49L14.97,16.95z M12,3c-4.96,0-9,4.04-9,9s4.04,9,9,9s9-4.04,9-9S16.96,3,12,3 M12,2c5.52,0,10,4.48,10,10s-4.48,10-10,10S2,17.52,2,12S6.48,2,12,2L12,2z"
			class="style-scope yt-icon"></path>
	</g>
</svg>
<!-- Downloads -->
<svg viewBox="0 0 24 24" preserveAspectRatio="xMidYMid meet" focusable="false" class="style-scope yt-icon"
	style="pointer-events: none; display: block; width: 100%; height: 100%;">
	<g class="style-scope yt-icon">
		<path d="M17 18V19H6V18H17ZM16.5 11.4L15.8 10.7L12 14.4V4H11V14.4L7.2 10.6L6.5 11.3L11.5 16.3L16.5 11.4Z"
			class="style-scope yt-icon"></path>
	</g>
</svg>
<!-- Liked Videos -->
<svg viewBox="0 0 24 24" preserveAspectRatio="xMidYMid meet" focusable="false" class="style-scope yt-icon"
	style="pointer-events: none; display: block; width: 100%; height: 100%;">
	<g class="style-scope yt-icon">
		<path
			d="M18.77,11h-4.23l1.52-4.94C16.38,5.03,15.54,4,14.38,4c-0.58,0-1.14,0.24-1.52,0.65L7,11H3v10h4h1h9.43 c1.06,0,1.98-0.67,2.19-1.61l1.34-6C21.23,12.15,20.18,11,18.77,11z M7,20H4v-8h3V20z M19.98,13.17l-1.34,6 C18.54,19.65,18.03,20,17.43,20H8v-8.61l5.6-6.06C13.79,5.12,14.08,5,14.38,5c0.26,0,0.5,0.11,0.63,0.3 c0.07,0.1,0.15,0.26,0.09,0.47l-1.52,4.94L13.18,12h1.35h4.23c0.41,0,0.8,0.17,1.03,0.46C19.92,12.61,20.05,12.86,19.98,13.17z"
			class="style-scope yt-icon"></path>
	</g>
</svg>
<!-- Menu -->
<svg viewBox="0 0 24 24" preserveAspectRatio="xMidYMid meet" focusable="false" class="style-scope yt-icon"
	style="pointer-events: none; display: block; width: 100%; height: 100%;">
	<g class="style-scope yt-icon">
		<path d="M21,6H3V5h18V6z M21,11H3v1h18V11z M21,17H3v1h18V17z" class="style-scope yt-icon"></path>
	</g>
</svg>
<!-- Logo -->
<svg viewBox="0 0 97 20" preserveAspectRatio="xMidYMid meet" focusable="false" class="style-scope yt-icon"
	style="pointer-events: none; display: block; width: 100%; height: 100%;">
	<g viewBox="0 0 97 20" preserveAspectRatio="xMidYMid meet" class="style-scope yt-icon">
		<g class="style-scope yt-icon">
			<path
				d="M27.9704 3.12324C27.6411 1.89323 26.6745 0.926623 25.4445 0.597366C23.2173 2.24288e-07 14.2827 0 14.2827 0C14.2827 0 5.34807 2.24288e-07 3.12088 0.597366C1.89323 0.926623 0.924271 1.89323 0.595014 3.12324C-2.8036e-07 5.35042 0 10 0 10C0 10 -1.57002e-06 14.6496 0.597364 16.8768C0.926621 18.1068 1.89323 19.0734 3.12324 19.4026C5.35042 20 14.285 20 14.285 20C14.285 20 23.2197 20 25.4468 19.4026C26.6769 19.0734 27.6435 18.1068 27.9727 16.8768C28.5701 14.6496 28.5701 10 28.5701 10C28.5701 10 28.5677 5.35042 27.9704 3.12324Z"
				fill="#FF0000" class="style-scope yt-icon"></path>
			<path d="M11.4275 14.2854L18.8475 10.0004L11.4275 5.71533V14.2854Z" fill="white"
				class="style-scope yt-icon"></path>
		</g>
		<g id="youtube-red-paths" class="style-scope yt-icon">
			<path
				d="M40.0566 6.34524V7.03668C40.0566 10.4915 38.5255 12.5118 35.1742 12.5118H34.6638V18.5583H31.9263V1.42285H35.414C38.6078 1.42285 40.0566 2.7728 40.0566 6.34524ZM37.1779 6.59218C37.1779 4.09924 36.7287 3.50658 35.1765 3.50658H34.6662V10.4727H35.1365C36.6064 10.4727 37.1803 9.40968 37.1803 7.10253L37.1779 6.59218Z"
				class="style-scope yt-icon"></path>
			<path
				d="M46.5336 5.8345L46.3901 9.08238C45.2259 8.83779 44.264 9.02123 43.836 9.77382V18.5579H41.1196V6.0391H43.2857L43.5303 8.75312H43.6337C43.9183 6.77288 44.8379 5.771 46.0232 5.771C46.1949 5.7757 46.3666 5.79687 46.5336 5.8345Z"
				class="style-scope yt-icon"></path>
			<path
				d="M49.6567 13.2456V13.8782C49.6567 16.0842 49.779 16.8415 50.7198 16.8415C51.6182 16.8415 51.8228 16.1501 51.8439 14.7178L54.2734 14.8613C54.4568 17.5565 53.0481 18.763 50.6586 18.763C47.7588 18.763 46.9004 16.8627 46.9004 13.4126V11.223C46.9004 7.58707 47.8599 5.80908 50.7409 5.80908C53.6407 5.80908 54.3769 7.32131 54.3769 11.0984V13.2456H49.6567ZM49.6567 10.6703V11.5687H51.7193V10.675C51.7193 8.37258 51.5547 7.71172 50.6821 7.71172C49.8096 7.71172 49.6567 8.38669 49.6567 10.675V10.6703Z"
				class="style-scope yt-icon"></path>
			<path
				d="M68.4103 9.09902V18.5557H65.5928V9.30834C65.5928 8.28764 65.327 7.77729 64.7132 7.77729C64.2216 7.77729 63.7724 8.06186 63.4667 8.59338C63.4832 8.76271 63.4902 8.93439 63.4879 9.10373V18.5605H60.668V9.30834C60.668 8.28764 60.4022 7.77729 59.7884 7.77729C59.2969 7.77729 58.8665 8.06186 58.5631 8.57456V18.5628H55.7456V6.03929H57.9728L58.2221 7.63383H58.2621C58.8947 6.42969 59.9178 5.77588 61.1219 5.77588C62.3072 5.77588 62.9799 6.36854 63.288 7.43157C63.9418 6.34973 64.9225 5.77588 66.0443 5.77588C67.7564 5.77588 68.4103 7.00119 68.4103 9.09902Z"
				class="style-scope yt-icon"></path>
			<path
				d="M69.8191 2.8338C69.8191 1.4862 70.3106 1.09814 71.3501 1.09814C72.4132 1.09814 72.8812 1.54734 72.8812 2.8338C72.8812 4.22373 72.4108 4.57181 71.3501 4.57181C70.3106 4.56945 69.8191 4.22138 69.8191 2.8338ZM69.9837 6.03935H72.6789V18.5629H69.9837V6.03935Z"
				class="style-scope yt-icon"></path>
			<path
				d="M81.891 6.03955V18.5631H79.6849L79.4403 17.032H79.3792C78.7466 18.2573 77.827 18.7677 76.684 18.7677C75.0095 18.7677 74.2522 17.7046 74.2522 15.3975V6.0419H77.0697V15.2352C77.0697 16.3382 77.3002 16.7874 77.867 16.7874C78.3844 16.7663 78.8477 16.4582 79.0688 15.9902V6.0419H81.891V6.03955Z"
				class="style-scope yt-icon"></path>
			<path
				d="M96.1901 9.09893V18.5557H93.3726V9.30825C93.3726 8.28755 93.1068 7.7772 92.493 7.7772C92.0015 7.7772 91.5523 8.06177 91.2465 8.59329C91.263 8.76027 91.2701 8.9296 91.2677 9.09893V18.5557H88.4502V9.30825C88.4502 8.28755 88.1845 7.7772 87.5706 7.7772C87.0791 7.7772 86.6487 8.06177 86.3453 8.57447V18.5627H83.5278V6.0392H85.7527L85.9973 7.63139H86.0372C86.6699 6.42725 87.6929 5.77344 88.8971 5.77344C90.0824 5.77344 90.755 6.3661 91.0631 7.42913C91.7169 6.34729 92.6976 5.77344 93.8194 5.77344C95.541 5.77579 96.1901 7.0011 96.1901 9.09893Z"
				class="style-scope yt-icon"></path>
			<path
				d="M40.0566 6.34524V7.03668C40.0566 10.4915 38.5255 12.5118 35.1742 12.5118H34.6638V18.5583H31.9263V1.42285H35.414C38.6078 1.42285 40.0566 2.7728 40.0566 6.34524ZM37.1779 6.59218C37.1779 4.09924 36.7287 3.50658 35.1765 3.50658H34.6662V10.4727H35.1365C36.6064 10.4727 37.1803 9.40968 37.1803 7.10253L37.1779 6.59218Z"
				class="style-scope yt-icon"></path>
		</g>
	</g>
</svg>
<!-- Create -->
<svg viewBox="0 0 24 24" preserveAspectRatio="xMidYMid meet" focusable="false" class="style-scope yt-icon"
	style="pointer-events: none; display: block; width: 100%; height: 100%;">
	<g class="style-scope yt-icon">
		<path
			d="M14,13h-3v3H9v-3H6v-2h3V8h2v3h3V13z M17,6H3v12h14v-6.39l4,1.83V8.56l-4,1.83V6 M18,5v3.83L22,7v8l-4-1.83V19H2V5H18L18,5 z"
			class="style-scope yt-icon"></path>
	</g>
</svg>
<!-- Apps -->
<svg viewBox="0 0 24 24" preserveAspectRatio="xMidYMid meet" focusable="false" class="style-scope yt-icon"
	style="pointer-events: none; display: block; width: 100%; height: 100%;">
	<g class="style-scope yt-icon">
		<path
			d="M16,4v4h4V4H16z M19,7h-2V5h2V7z M16,10v4h4v-4H16z M19,13h-2v-2h2V13z M10,4v4h4V4H10z M13,7h-2V5h2V7z M10,10v4h4v-4H10z M13,13h-2v-2h2V13z M16,16v4h4v-4H16z M19,19h-2v-2h2V19z M10,16v4h4v-4H10z M13,19h-2v-2h2V19z M4,4v4h4V4H4z M7,7H5V5h2V7z M4,10 v4h4v-4H4z M7,13H5v-2h2V13z M4,16v4h4v-4H4z M7,19H5v-2h2V19z"
			class="style-scope yt-icon"></path>
	</g>
</svg>
<!-- Notifications -->
<svg viewBox="0 0 24 24" preserveAspectRatio="xMidYMid meet" focusable="false" class="style-scope yt-icon"
	style="pointer-events: none; display: block; width: 100%; height: 100%;">
	<g class="style-scope yt-icon">
		<path
			d="M10,20h4c0,1.1-0.9,2-2,2S10,21.1,10,20z M20,17.35V19H4v-1.65l2-1.88v-5.15c0-2.92,1.56-5.22,4-5.98V3.96 c0-1.42,1.49-2.5,2.99-1.76C13.64,2.52,14,3.23,14,3.96l0,0.39c2.44,0.75,4,3.06,4,5.98v5.15L20,17.35z M19,17.77l-2-1.88v-5.47 c0-2.47-1.19-4.36-3.13-5.1c-1.26-0.53-2.64-0.5-3.84,0.03C8.15,6.11,7,7.99,7,10.42v5.47l-2,1.88V18h14V17.77z"
			class="style-scope yt-icon"></path>
	</g>
</svg>
<!-- Search -->
<svg viewBox="0 0 24 24" preserveAspectRatio="xMidYMid meet" focusable="false" class="style-scope yt-icon"
	style="pointer-events: none; display: block; width: 100%; height: 100%;">
	<g class="style-scope yt-icon">
		<path
			d="M20.87,20.17l-5.59-5.59C16.35,13.35,17,11.75,17,10c0-3.87-3.13-7-7-7s-7,3.13-7,7s3.13,7,7,7c1.75,0,3.35-0.65,4.58-1.71 l5.59,5.59L20.87,20.17z M10,16c-3.31,0-6-2.69-6-6s2.69-6,6-6s6,2.69,6,6S13.31,16,10,16z"
			class="style-scope yt-icon"></path>
	</g>
</svg>
<!-- Voice -->
<svg viewBox="0 0 24 24" preserveAspectRatio="xMidYMid meet" focusable="false" class="style-scope yt-icon"
	style="pointer-events: none; display: block; width: 100%; height: 100%;">
	<g class="style-scope yt-icon">
		<path
			d="M12 3C10.34 3 9 4.37 9 6.07V11.93C9 13.63 10.34 15 12 15C13.66 15 15 13.63 15 11.93V6.07C15 4.37 13.66 3 12 3ZM18.5 12H17.5C17.5 15.03 15.03 17.5 12 17.5C8.97 17.5 6.5 15.03 6.5 12H5.5C5.5 15.24 7.89 17.93 11 18.41V21H13V18.41C16.11 17.93 18.5 15.24 18.5 12Z"
			class="style-scope yt-icon"></path>
	</g>
</svg>